<?xml version="1.0" encoding="utf-8"?>
<!-- Generator: Adobe Illustrator 19.0.0, SVG Export Plug-In . SVG Version: 6.00 Build 0)  -->
<svg version="1.1" id="Layer_1" xmlns="http://www.w3.org/2000/svg" xmlns:xlink="http://www.w3.org/1999/xlink" x="0px" y="0px"
	 viewBox="-37.3 64.1 132.7 93.9" style="enable-background:new -37.3 64.1 132.7 93.9;" xml:space="preserve">
<style type="text/css">
	.st0{fill:#003385;}
</style>
<g>
	<g>
		<g>
			<path class="st0" d="M93,156.5H-11.9l52.5-90.8L93,156.5z M4.7,147h71.7L40.6,84.9L4.7,147z"/>
		</g>
		<g>
			<path class="st0" d="M-0.8,156.5h-34.6L4.8,86.9l17.3,30L-0.8,156.5z M-18.8,147h12.5l17.4-30.1l-6.3-10.8L-18.8,147z"/>
		</g>
		<g>
			<path class="st0" d="M56.3,111.7c-4.2-4.2-8.3-4.1-14-3.9c-1.2,0-2.4,0.1-3.6,0.1c-9.1,0-12.8-8.7-13.5-13.3l9.5-1.5
				c0,0.1,0.9,5.2,4.1,5.2c1.1,0,2.2,0,3.3-0.1c6.5-0.2,13.9-0.5,21.1,6.7L56.3,111.7z"/>
		</g>
	</g>
</g>
</svg>
