<?xml version="1.0" encoding="utf-8"?>
<!-- Generator: Adobe Illustrator 19.0.0, SVG Export Plug-In . SVG Version: 6.00 Build 0)  -->
<svg version="1.1" id="Layer_1" xmlns="http://www.w3.org/2000/svg" xmlns:xlink="http://www.w3.org/1999/xlink" x="0px" y="0px"
	 viewBox="-47 64.1 150 118.5" style="enable-background:new -47 64.1 150 118.5;" xml:space="preserve">
<style type="text/css">
	.st0{fill:#003385;}
</style>
<g>
	<g>
		<g>
			<path class="st0" d="M92.2,173.4H-12.7l52.5-90.8L92.2,173.4z M3.9,163.9h71.7l-35.8-62.1L3.9,163.9z"/>
		</g>
		<g>
			<path class="st0" d="M-1.6,173.4h-34.6L4,103.8l17.3,30L-1.6,173.4z M-19.6,163.9h12.5l17.4-30.1L4,123L-19.6,163.9z"/>
		</g>
		<g>
			<path class="st0" d="M55.5,128.6c-4.2-4.2-8.3-4.1-14-3.9c-1.2,0-2.4,0.1-3.6,0.1c-9.1,0-12.8-8.7-13.5-13.3l9.5-1.5
				c0,0.1,0.9,5.2,4.1,5.2c1.1,0,2.2,0,3.3-0.1c6.5-0.2,13.9-0.5,21.1,6.7L55.5,128.6z"/>
		</g>
	</g>
	<g>
		<path class="st0" d="M-45.7,182.5h2.9v15.2h-2.9V182.5z M-44.7,182.5h9.1v2.8h-9.1V182.5z M-44.7,188.8h8v2.8h-8V188.8z
			 M-44.7,194.9h9.1v2.8h-9.1V194.9z"/>
		<path class="st0" d="M-25,197.9c0,0-0.3-0.1-1-0.2s-1.3-0.4-2-0.6c-0.6-0.3-1.2-0.6-1.6-1l1.3-2.4c0.6,0.5,1.3,0.9,2,1.1
			c0.8,0.3,1.6,0.4,2.4,0.4c0.9,0,1.7-0.2,2.2-0.5s0.8-0.8,0.8-1.3l0,0c0-0.4-0.1-0.7-0.3-1c-0.2-0.2-0.5-0.4-0.9-0.5
			c-0.4-0.1-0.8-0.2-1.4-0.3c0,0,0,0-0.1,0c0,0,0,0-0.1,0h-0.2c-1-0.2-1.9-0.4-2.5-0.6c-0.7-0.2-1.2-0.7-1.7-1.3
			c-0.5-0.6-0.7-1.5-0.7-2.6l0,0c0-1,0.2-1.8,0.7-2.5c0.4-0.7,1.1-1.2,1.9-1.6c0.8-0.4,1.8-0.5,3-0.5c0.5,0,1.1,0.1,1.7,0.2
			c0.6,0.1,1.1,0.3,1.7,0.5c0.5,0.2,1.1,0.5,1.5,0.9l-1.2,2.4c-0.6-0.4-1.2-0.7-1.8-0.9c-0.6-0.2-1.2-0.3-1.8-0.3
			c-0.9,0-1.6,0.1-2,0.4c-0.5,0.3-0.7,0.7-0.7,1.2l0,0c0,0.4,0.1,0.8,0.4,1c0.3,0.3,0.6,0.4,0.9,0.6c0.4,0.1,0.9,0.2,1.6,0.4h0.1
			h0.1h0.1h0.1c1,0.2,1.8,0.4,2.4,0.7c0.6,0.3,1.2,0.7,1.6,1.3s0.6,1.4,0.6,2.4l0,0c0,1-0.2,1.8-0.7,2.5s-1.1,1.2-2,1.6
			c-0.9,0.4-1.9,0.5-3.1,0.5C-24.6,197.9-25,197.9-25,197.9z"/>
		<path class="st0" d="M-8.2,197.9c0,0-0.4-0.2-1.2-0.7c-0.8-0.4-1.4-1.1-1.9-1.9c-0.4-0.8-0.6-1.9-0.6-3.1V188
			c0-1.2,0.2-2.2,0.6-3.1c0.4-0.8,1.1-1.5,1.9-1.9c0.8-0.4,1.8-0.7,3-0.7c1,0,1.8,0.2,2.6,0.6c0.8,0.4,1.4,1,1.9,1.8s0.8,1.7,1,2.8
			h-3c-0.1-0.5-0.3-0.9-0.5-1.3c-0.2-0.4-0.5-0.6-0.8-0.8c-0.3-0.2-0.7-0.3-1.1-0.3c-0.5,0-1,0.1-1.4,0.3s-0.7,0.5-0.9,1
			c-0.2,0.4-0.3,0.9-0.3,1.5v4.2c0,0.6,0.1,1.1,0.3,1.5s0.5,0.7,0.9,1c0.4,0.2,0.8,0.3,1.4,0.3c0.4,0,0.8-0.1,1.1-0.3
			s0.6-0.5,0.8-0.8c0.2-0.4,0.4-0.8,0.5-1.3h3c-0.2,1.1-0.5,2.1-1,2.8c-0.5,0.8-1.1,1.4-1.9,1.8c-0.7,0.4-1.6,0.6-2.6,0.6
			C-7.6,197.9-8.2,197.9-8.2,197.9z"/>
		<path class="st0" d="M9.6,182.5h1.8l5.8,15.2h-3.1l-3.6-10.4l-3.6,10.4H3.8L9.6,182.5z M6.6,192.5h8v2.8h-8V192.5z"/>
		<path class="st0" d="M23.4,182.5h2.9v15.2h-2.9V182.5z M24.6,194.9h8.9v2.8h-8.9V194.9z"/>
		<path class="st0" d="M44.4,182.5h1.8l5.8,15.2h-3l-3.6-10.4l-3.6,10.4h-3.1L44.4,182.5z M41.4,192.5h8v2.8h-8V192.5z"/>
		<path class="st0" d="M55.7,182.5h11.1v2.8H55.7V182.5z M59.8,183.8h2.9v13.9h-2.9V183.8z"/>
		<path class="st0" d="M74.7,197.2c-0.8-0.5-1.5-1.1-1.9-2c-0.5-0.8-0.7-1.8-0.7-2.9V188c0-1.1,0.2-2.1,0.7-2.9s1.1-1.5,1.9-2
			s1.8-0.7,2.9-0.7s2.1,0.2,2.9,0.7s1.5,1.1,1.9,2c0.5,0.8,0.7,1.8,0.7,2.9v4.3c0,1.1-0.2,2.1-0.7,2.9c-0.5,0.8-1.1,1.5-1.9,2
			c-0.8,0.5-1.8,0.7-2.9,0.7S75.5,197.6,74.7,197.2z M78.9,194.7c0.4-0.2,0.7-0.5,0.9-0.9c0.2-0.4,0.3-0.9,0.3-1.4V188
			c0-0.5-0.1-1-0.3-1.4c-0.2-0.4-0.5-0.7-0.9-0.9c-0.4-0.2-0.8-0.3-1.4-0.3c-0.5,0-1,0.1-1.4,0.3s-0.7,0.5-0.9,0.9
			c-0.2,0.4-0.3,0.9-0.3,1.4v4.4c0,0.5,0.1,1,0.3,1.4c0.2,0.4,0.5,0.7,0.9,0.9s0.8,0.3,1.4,0.3S78.5,194.9,78.9,194.7z"/>
		<path class="st0" d="M90.2,182.5h2.9v15.2h-2.9V182.5z M91.3,188.8h5.3c0.3,0,0.5-0.1,0.8-0.2c0.3-0.1,0.4-0.4,0.5-0.6
			c0.1-0.3,0.2-0.6,0.2-0.9c0-0.4-0.1-0.7-0.2-0.9c-0.1-0.3-0.3-0.5-0.5-0.6c-0.2-0.1-0.5-0.2-0.8-0.2h-5.3v-2.8h5.5
			c0.8,0,1.6,0.2,2.2,0.6c0.6,0.4,1.1,0.9,1.5,1.6c0.3,0.7,0.5,1.5,0.5,2.4c0,0.9-0.2,1.7-0.5,2.4c-0.3,0.7-0.8,1.2-1.5,1.6
			c-0.6,0.4-1.4,0.6-2.2,0.6h-5.5V188.8z M94.5,191.1l3.1-0.5l4.1,7.1h-3.5L94.5,191.1z"/>
	</g>
</g>
</svg>
